<svg width="118" height="118" viewBox="0 0 118 118" fill="none" xmlns="http://www.w3.org/2000/svg">
<circle cx="59" cy="59" r="59" fill="#F4D800"/>
<g clip-path="url(#clip0_0_1)">
<path d="M82.3628 52.7288L61.6475 19.7391C61.347 19.317 60.9499 18.9729 60.4893 18.7354C60.0288 18.498 59.5182 18.3741 59 18.3741C58.4818 18.3741 57.9712 18.498 57.5107 18.7354C57.0501 18.9729 56.653 19.317 56.3525 19.7391L35.5441 52.8888C32.6537 57.5508 31.0433 62.8923 30.875 68.375C30.875 75.8342 33.8382 82.9879 39.1126 88.2624C44.3871 93.5368 51.5408 96.5 59 96.5C66.4592 96.5 73.6129 93.5368 78.8874 88.2624C84.1618 82.9879 87.125 75.8342 87.125 68.375C86.9453 62.8309 85.3024 57.4329 82.3628 52.7288ZM59 90.2516C53.2006 90.2442 47.6409 87.9372 43.5402 83.8364C39.4394 79.7356 37.1324 74.1759 37.125 68.3766C37.2909 64.0056 38.604 59.7552 40.9322 56.0522L43.8541 51.3997L75.3347 82.8784C73.2898 85.1946 70.776 87.0497 67.9599 88.3209C65.1438 89.592 62.0897 90.2501 59 90.2516Z" fill="black"/>
</g>
<defs>
<clipPath id="clip0_0_1">
<rect width="100" height="100" fill="white" transform="translate(9 9)"/>
</clipPath>
</defs>
</svg>
