<svg width="118" height="118" viewBox="0 0 118 118" fill="none" xmlns="http://www.w3.org/2000/svg">
<circle cx="59" cy="59" r="59" fill="#F4D800"/>
<g clip-path="url(#clip0_0_1)">
<path d="M62.2609 82.9131H55.7393C53.9412 82.9131 52.4783 84.376 52.4783 86.174C52.4783 87.9721 53.9412 89.435 55.7393 89.435H62.2609C64.059 89.435 65.5219 87.9721 65.5219 86.174C65.5219 84.376 64.059 82.9131 62.2609 82.9131Z" fill="black"/>
<path d="M59 54.6522C56.6033 54.6522 54.6521 56.6022 54.6521 59C54.6521 61.3979 56.6033 63.3479 59 63.3479C61.3967 63.3479 63.3478 61.3979 63.3478 59C63.3478 56.6022 61.3967 54.6522 59 54.6522Z" fill="black"/>
<path d="M59 9C31.4291 9 9 31.4303 9 59C9 86.5697 31.4291 109 59 109C86.5709 109 109 86.5697 109 59C109 31.4303 86.5709 9 59 9ZM62.2609 95.9564H55.7393C50.3449 95.9564 45.9566 91.5682 45.9566 86.1738C45.9566 80.7795 50.3449 76.3912 55.7393 76.3912H62.2609C67.6553 76.3912 72.0436 80.7795 72.0436 86.1738C72.0436 91.5682 67.6553 95.9564 62.2609 95.9564ZM85.1314 85.1314C83.8576 86.4053 81.7943 86.4053 80.5203 85.1314L75.9092 80.5203C74.6355 79.2477 74.6355 77.182 75.9092 75.9092C77.1828 74.6355 79.2465 74.6355 80.5203 75.9092L82.7049 78.0926C86.376 73.5475 88.6131 68.0848 89.2281 62.2605H86.1738C84.3736 62.2605 82.9129 60.801 82.9129 58.9996C82.9129 57.1982 84.3736 55.7387 86.1738 55.7387H89.2385C88.6238 49.9145 86.368 44.4596 82.6965 39.9143L68.6 54.0107C69.384 55.5121 69.8695 57.192 69.8695 58.9996C69.8695 64.9926 64.993 69.8691 59 69.8691C53.007 69.8691 48.1305 64.9926 48.1305 58.9996C48.1305 53.0066 53.007 48.1301 59 48.1301C60.8076 48.1301 62.4873 48.6158 63.9889 49.3996L78.0854 35.3031C73.5398 31.6316 68.085 29.3758 62.2607 28.7609V31.8256C62.2607 33.627 60.8 35.0865 58.9998 35.0865C57.1996 35.0865 55.7389 33.627 55.7389 31.8256V28.7609C49.9146 29.3758 44.4598 31.6314 39.9143 35.3029L42.0904 37.4787C43.3641 38.7514 43.3641 40.817 42.0904 42.0898C41.4535 42.7268 40.6191 43.0453 39.785 43.0453C38.9508 43.0453 38.1162 42.7268 37.4795 42.0898L35.3033 39.9141C31.6318 44.4596 29.3758 49.9145 28.7611 55.7387H31.8258C33.626 55.7387 35.0867 57.1982 35.0867 58.9996C35.0867 60.801 33.626 62.2605 31.8258 62.2605H28.7715C29.3867 68.0848 31.6236 73.5473 35.2947 78.0926L37.4793 75.9092C38.7529 74.6355 40.8166 74.6355 42.0904 75.9092C43.3641 77.1818 43.3641 79.2475 42.0904 80.5203L37.4793 85.1314C36.2057 86.4051 34.142 86.4051 32.8682 85.1314C18.5455 70.8088 18.3396 47.3969 32.8682 32.8684C47.2824 18.4521 70.7242 18.4594 85.1312 32.8684C99.4574 47.1943 99.6562 70.6068 85.1314 85.1314Z" fill="black"/>
</g>
<defs>
<clipPath id="clip0_0_1">
<rect width="100" height="100" fill="white" transform="translate(9 9)"/>
</clipPath>
</defs>
</svg>
