<svg width="118" height="118" viewBox="0 0 118 118" fill="none" xmlns="http://www.w3.org/2000/svg">
<circle cx="59" cy="59" r="59" fill="#F4D800"/>
<path d="M82.3043 46.5281H73.4068V38.1011H82.3043C84.6312 38.1011 86.5178 36.2144 86.5178 33.8876C86.5178 31.5607 84.6312 29.6741 82.3043 29.6741H73.4068V25.3622C73.4064 16.3399 66.0665 9 57.0443 9C48.022 9 40.6821 16.3399 40.6821 25.3622V63.8047C34.884 68.6408 31.4822 75.8243 31.4822 83.4383C31.4822 97.5329 42.9493 109 57.0443 109C71.1389 109 82.606 97.5332 82.606 83.4383C82.606 75.8243 79.2045 68.6405 73.4064 63.8047V54.955H82.304C84.6308 54.955 86.5175 53.0684 86.5175 50.7416C86.5175 48.4147 84.6312 46.5281 82.3043 46.5281V46.5281ZM57.0443 90.6292C52.7627 90.6292 49.2914 87.1583 49.2914 82.8764C49.2914 80.1487 50.7014 77.7517 52.8308 76.3697V47.9327C52.8308 45.6058 54.7174 43.7192 57.0443 43.7192C59.3711 43.7192 61.2578 45.6058 61.2578 47.9327V76.37C63.3871 77.7521 64.7971 80.1487 64.7971 82.8764C64.7971 87.1583 61.3262 90.6292 57.0443 90.6292Z" fill="black"/>
</svg>
